<?xml version="1.0" encoding="UTF-8" standalone="no"?>
<!-- Created with Inkscape (http://www.inkscape.org/) -->

<svg
   xmlns:dc="http://purl.org/dc/elements/1.1/"
   xmlns:cc="http://creativecommons.org/ns#"
   xmlns:rdf="http://www.w3.org/1999/02/22-rdf-syntax-ns#"
   xmlns:svg="http://www.w3.org/2000/svg"
   xmlns="http://www.w3.org/2000/svg"
   version="1.1"
   width="16.336523"
   height="35"
   viewBox="0 0 16.336523 35"
   id="Layer_1"
   xml:space="preserve"><metadata
     id="metadata3041"><rdf:RDF><cc:Work
         rdf:about=""><dc:format>image/svg+xml</dc:format><dc:type
           rdf:resource="http://purl.org/dc/dcmitype/StillImage" /><dc:title></dc:title></cc:Work></rdf:RDF></metadata><defs
     id="defs3039" /><g
     transform="matrix(0.08495139,0,0,0.08495139,-13.57931,-4.2476251)"
     id="_x23_020201ff"><path fill="#ffffff"
       d="m 223.22,71.227 c 16.066,-15.298 38.918,-20.465 60.475,-21.109 22.799,-0.205 45.589,-0.081 68.388,-0.072 0.09,24.051 0.098,48.111 -0.009,72.161 -14.734,-0.026 -29.478,0.036 -44.212,-0.026 -9.343,-0.582 -18.937,6.5 -20.635,15.762 -0.224,16.093 -0.081,32.195 -0.072,48.289 21.61,0.089 43.22,-0.027 64.829,0.054 -1.582,23.281 -4.47,46.456 -7.858,69.541 -19.088,0.179 -38.187,-0.018 -57.274,0.099 -0.17,68.665 0.089,137.33 -0.134,205.995 -28.352,0.116 -56.721,-0.054 -85.072,0.08 -0.537,-68.674 0.044,-137.383 -0.295,-206.066 -13.832,-0.144 -27.672,0.099 -41.503,-0.116 0.053,-23.085 0.018,-46.169 0.026,-69.246 13.822,-0.169 27.654,0.036 41.477,-0.098 0.42,-22.442 -0.421,-44.91 0.438,-67.333 1.386,-17.758 8.154,-35.649 21.431,-47.915 z"
       id="path3035"/></g></svg>
