<?xml version="1.0" encoding="utf-8"?>
<!-- Generator: Adobe Illustrator 16.0.0, SVG Export Plug-In . SVG Version: 6.00 Build 0)  -->
<!DOCTYPE svg PUBLIC "-//W3C//DTD SVG 1.1//EN" "http://www.w3.org/Graphics/SVG/1.1/DTD/svg11.dtd">
<svg version="1.1" id="Livello_1" xmlns="http://www.w3.org/2000/svg" xmlns:xlink="http://www.w3.org/1999/xlink" x="0px" y="0px"
	 width="107px" height="107px" viewBox="0 0 107 107" enable-background="new 0 0 107 107" xml:space="preserve">
<g>
	<path fill="#FFFFFF" d="M10.397,0h86.212C102.359,0,107,4.655,107,10.398v86.208c0,5.743-4.641,10.398-10.391,10.398H10.397
		C4.663,107.004,0,102.349,0,96.606V10.398C0,4.655,4.663,0,10.397,0"/>
	<path fill="#025B9D" d="M10.284,3.239h86.437c3.904,0,7.067,3.165,7.067,7.072v86.387c0,3.901-3.164,7.066-7.067,7.066H10.284
		c-3.902,0-7.069-3.165-7.069-7.066V10.311C3.215,6.404,6.382,3.239,10.284,3.239"/>
	<path fill="#FFFFFF" d="M29.299,48.076h7.742c1.205,0,2.2,0.981,2.2,2.189v39.793c0,1.209-0.996,2.189-2.2,2.189h-7.742
		c-1.22,0-2.199-0.98-2.199-2.189V50.266C27.101,49.058,28.079,48.076,29.299,48.076"/>
	<path fill="#FFFFFF" d="M27.003,38.91c0-3.444,2.794-6.237,6.248-6.237c3.452,0,6.247,2.793,6.247,6.237
		c0,3.446-2.795,6.238-6.247,6.238C29.798,45.148,27.003,42.356,27.003,38.91"/>
	<path fill="#FFFFFF" d="M69.804,48.076h7.741c1.22,0,2.2,0.981,2.2,2.189v39.793c0,1.209-0.98,2.189-2.2,2.189h-7.741
		c-1.205,0-2.185-0.98-2.185-2.189V50.266C67.619,49.058,68.6,48.076,69.804,48.076"/>
	<path fill="#FFFFFF" d="M67.508,38.91c0-3.444,2.811-6.237,6.247-6.237c3.453,0,6.247,2.793,6.247,6.237
		c0,3.446-2.793,6.238-6.247,6.238C70.318,45.148,67.508,42.356,67.508,38.91"/>
	<path fill="#FFFFFF" d="M96.994,15.671c-0.722,0.691-1.573,1.037-2.585,1.037c-1.029,0-1.91-0.354-2.617-1.062
		c-0.708-0.709-1.061-1.581-1.061-2.616c0-1.074,0.386-1.967,1.156-2.679c0.707-0.667,1.559-0.998,2.521-0.998
		c1.012,0,1.879,0.359,2.602,1.077c0.723,0.719,1.076,1.586,1.076,2.599C98.087,14.076,97.718,14.956,96.994,15.671"/>
	<path fill="#025B9D" d="M92.257,10.9c-0.594,0.599-0.884,1.308-0.884,2.13c0,0.853,0.29,1.576,0.9,2.17
		c0.579,0.598,1.302,0.894,2.136,0.894c0.834,0,1.559-0.299,2.136-0.898c0.595-0.603,0.9-1.324,0.9-2.166
		c0-0.817-0.306-1.528-0.885-2.13c-0.593-0.613-1.317-0.917-2.152-0.917C93.575,9.983,92.851,10.287,92.257,10.9"/>
	<path fill="#FFFFFF" d="M92.803,15.077v-4.078c0.257,0,0.627,0.003,1.125,0.005c0.513,0,0.786,0.003,0.852,0.004
		c0.32,0.025,0.593,0.096,0.803,0.21c0.353,0.199,0.546,0.525,0.546,0.974c0,0.342-0.097,0.591-0.289,0.743
		c-0.195,0.154-0.435,0.245-0.708,0.274c0.255,0.054,0.45,0.132,0.579,0.235c0.24,0.193,0.352,0.496,0.352,0.913v0.364
		c0,0.039,0,0.08,0.017,0.121c0,0.039,0.018,0.08,0.018,0.118l0.047,0.116h-1.029c-0.031-0.13-0.047-0.317-0.063-0.563
		c0-0.247-0.033-0.415-0.066-0.5c-0.047-0.143-0.144-0.243-0.289-0.298c-0.08-0.034-0.207-0.055-0.368-0.065l-0.24-0.014h-0.226
		v1.441H92.803"/>
	<path fill="#025B9D" d="M94.746,11.802c-0.144-0.057-0.353-0.083-0.626-0.083h-0.257v1.182h0.417c0.257,0,0.45-0.05,0.577-0.15
		c0.146-0.099,0.21-0.26,0.21-0.484C95.067,12.045,94.97,11.888,94.746,11.802"/>
	<path fill="#FFFFFF" d="M76.341,28.747c0.723,0,1.333-0.496,1.509-1.164c0,0,0.483-1.007,0.082-3.228
		c-1.543-7.109-7.789-12.779-15.242-12.779c-8.608,0-15.643,6.982-15.643,15.596v62.934c0,1.045,0.898,2.143,2.152,2.143h7.725
		c1.3,0,2.183-1.098,2.183-2.143V62.541c0-0.74,0.594-1.339,1.333-1.339c1.205,0,2.105-0.979,2.105-2.187v-9.074
		c0-1.211-0.885-2.185-2.105-2.185c-0.739,0-1.333-0.601-1.333-1.34V27.878c0-2.31,1.815-4.184,4.128-4.184
		c2.121,0,3.822,1.509,4.175,3.612l0.064,0.278c0.162,0.668,0.772,1.164,1.495,1.164c8.334,0,7.66,0.001,7.66,0.001L76.341,28.747"
		/>
</g>
</svg>
