<?xml version="1.0" encoding="UTF-8" standalone="no"?>
<!-- Created with Inkscape (http://www.inkscape.org/) -->

<svg
   xmlns:dc="http://purl.org/dc/elements/1.1/"
   xmlns:cc="http://creativecommons.org/ns#"
   xmlns:rdf="http://www.w3.org/1999/02/22-rdf-syntax-ns#"
   xmlns:svg="http://www.w3.org/2000/svg"
   xmlns="http://www.w3.org/2000/svg"
   version="1.1"
   width="35"
   height="35"
   viewBox="0 0 35 35"
   id="Capa_1"
   xml:space="preserve"><metadata
     id="metadata42"><rdf:RDF><cc:Work
         rdf:about=""><dc:format>image/svg+xml</dc:format><dc:type
           rdf:resource="http://purl.org/dc/dcmitype/StillImage" /><dc:title></dc:title></cc:Work></rdf:RDF></metadata><defs
     id="defs40" /><g
     transform="scale(0.06862745,0.06862745)"
     id="g3"><g
       id="post-instagram"><path fill="#ffffff"
         d="M 459,0 H 51 C 22.95,0 0,22.95 0,51 v 408 c 0,28.05 22.95,51 51,51 h 408 c 28.05,0 51,-22.95 51,-51 V 51 C 510,22.95 487.05,0 459,0 z M 255,153 c 56.1,0 102,45.9 102,102 0,56.1 -45.9,102 -102,102 -56.1,0 -102,-45.9 -102,-102 0,-56.1 45.9,-102 102,-102 z M 63.75,459 C 56.1,459 51,453.9 51,446.25 V 229.5 h 53.55 C 102,237.15 102,247.35 102,255 c 0,84.15 68.85,153 153,153 84.15,0 153,-68.85 153,-153 0,-7.65 0,-17.85 -2.55,-25.5 H 459 V 446.25 C 459,453.9 453.9,459 446.25,459 H 63.75 z M 459,114.75 c 0,7.65 -5.1,12.75 -12.75,12.75 h -51 c -7.65,0 -12.75,-5.1 -12.75,-12.75 v -51 C 382.5,56.1 387.6,51 395.25,51 h 51 C 453.9,51 459,56.1 459,63.75 v 51 z"
         id="path6" /></g></g></svg>
