<?xml version="1.0" encoding="UTF-8" standalone="no"?>
<!-- Created with Inkscape (http://www.inkscape.org/) -->

<svg
   xmlns:dc="http://purl.org/dc/elements/1.1/"
   xmlns:cc="http://creativecommons.org/ns#"
   xmlns:rdf="http://www.w3.org/1999/02/22-rdf-syntax-ns#"
   xmlns:svg="http://www.w3.org/2000/svg"
   xmlns="http://www.w3.org/2000/svg"
   xmlns:xlink="http://www.w3.org/1999/xlink"
   xmlns:sodipodi="http://sodipodi.sourceforge.net/DTD/sodipodi-0.dtd"
   xmlns:inkscape="http://www.inkscape.org/namespaces/inkscape"
   width="522"
   height="202"
   id="svg2"
   version="1.1"
   inkscape:version="0.47 r22583">
  <g
     inkscape:label="Layer 1"
     inkscape:groupmode="layer"
     id="layer1"
     transform="translate(-307.90356,-93.987829)">
    <path
       id="path3861"
       d="m 664.68209,223.2983 c -12.87342,38.23049 -51.25239,65.96699 -95.60777,65.96699 -44.3591,0 -82.61185,-27.7365 -95.44815,-65.96699 l -0.88347,0 c 11.95283,41.95368 50.54338,72.68953 96.33162,72.68953 45.78452,0 84.38622,-30.73585 96.33162,-72.68953 z M 569.07432,99.486318 c 44.81196,0 83.43593,28.360122 95.927,67.195672 l 0.32667,0 c -11.96026,-41.94254 -50.46915,-72.69323 -96.25367,-72.69323 -45.78824,0 -84.37879,30.73584 -96.33162,72.69323 l 0.47514,0 c 12.42797,-38.85782 51.02595,-67.195672 95.85648,-67.195672"
       style="fill:#1f1a1c;fill-rule:nonzero;stroke:none" />
    <path
       id="path3865"
       d="m 519.64901,182.06885 c 0,-0.50113 -0.16704,-0.90203 -1.57763,-1.0134 l 0,-0.67559 11.6039,0 0,0.67559 c -1.40687,0.11137 -1.58134,0.51227 -1.58134,1.0134 l 0,15.0858 c 0,9.90377 -6.91928,13.18152 -15.53867,13.18152 -8.60456,0 -15.53497,-3.27775 -15.53497,-13.18152 l 0,-15.0858 c 0,-0.50113 -0.16704,-0.90203 -1.57762,-1.0134 l 0,-0.67559 11.60389,0 0,0.67559 c -1.41429,0.11137 -1.58134,0.51227 -1.58134,1.0134 l 0,15.0858 c 0,4.3394 2.58731,6.08406 7.09004,6.08406 4.50643,0 7.09374,-1.74466 7.09374,-6.08406 z"
       style="fill:#1f1a1c;fill-rule:nonzero;stroke:none" />
    <path
       id="path3869"
       d="m 571.70654,207.83016 c 0,0.93915 0.79809,1.1396 1.87088,1.2027 l 0,0.80552 -12.38714,0 0,-0.80552 c 0.66817,0 1.93769,-0.0631 1.93769,-0.87233 0,-1.53679 -8.57114,-9.16878 -16.14003,-18.01833 l -0.13363,0.13364 0,17.55432 c 0,0.93915 0.80552,1.1396 1.74096,1.2027 l 0,0.80552 -11.45542,0 0,-0.80552 c 0.87234,-0.0631 1.67785,-0.26355 1.67785,-1.2027 l 0,-25.4573 c 0,-0.93172 -0.80551,-1.14331 -1.80777,-1.20642 l 0,-0.79809 15.93587,0 0,0.79809 c -0.60136,0.0631 -1.40316,0.2747 -1.40316,1.20642 0,0.47515 6.4961,7.10859 12.12358,13.19637 l 0,-13.19637 c 0,-0.93172 -0.8018,-1.14331 -1.87459,-1.20642 l 0,-0.79809 11.78579,0 0,0.79809 c -1.07279,0.0631 -1.87088,0.2747 -1.87088,1.20642 z"
       style="fill:#1f1a1c;fill-rule:nonzero;stroke:none" />
    <path
       id="path3873"
       d="m 596.74845,180.36835 0,0.79809 c -1.34376,0.0631 -2.13814,0.2747 -2.13814,1.20642 l 0,25.4573 c 0,0.93915 0.79438,1.1396 2.13814,1.2027 l 0,0.80181 -13.25575,0 0,-0.80181 c 1.33634,-0.0631 2.13443,-0.26355 2.13443,-1.2027 l 0,-25.4573 c 0,-0.93172 -0.79809,-1.14331 -2.13443,-1.20642 l 0,-0.79809 z"
       style="fill:#1f1a1c;fill-rule:nonzero;stroke:none" />
    <path
       id="path3877"
       d="m 604.12172,180.36835 12.65069,0 0,0.79809 c -0.53454,0 -1.67043,0 -1.67043,0.6756 0,0.7387 5.56809,15.07095 6.03581,17.08289 l 0.1225,0 c 2.34231,-5.6943 6.96753,-16.48896 6.96753,-17.08289 0,-0.6756 -1.13218,-0.6756 -1.52937,-0.6756 l 0,-0.79809 11.17701,0 0,0.79809 c -0.7387,0.0631 -1.20642,0.2747 -1.39573,0.93916 -0.87976,2.81745 -10.39005,25.32737 -10.39005,25.85448 0,0.73128 0.79809,1.14331 1.40687,1.07278 l 0,0.80181 -14.13181,0 0,-0.80181 c 0.60507,0.0705 1.39945,-0.3415 1.39945,-1.07278 0,-0.27098 -8.57486,-25.85448 -9.50287,-26.44841 -0.54567,-0.34523 -0.81294,-0.34523 -1.1396,-0.34523 z"
       style="fill:#1f1a1c;fill-rule:nonzero;stroke:none" />
    <path
       id="path3881"
       d="m 672.43249,203.79738 c 0.7981,0 1.4774,-0.46772 1.74838,-1.68156 l 0.80923,0 0,8.97575 -0.68302,0 c -0.46029,-1.21013 -0.8018,-1.40687 -1.87459,-1.40687 l -29.87835,0 0,-0.79438 c 0.94286,-0.0705 1.88201,-0.27098 1.88201,-1.21013 l 0,-25.44987 c 0,-0.93915 -0.93915,-1.1396 -1.88201,-1.21013 l 0,-0.80552 30.4166,0 c 0.53454,0 1.21013,-0.25613 1.21013,-1.47368 l 0.80923,0 0,8.97946 -0.80923,0 c 0,-1.33634 -0.67559,-1.60732 -1.21013,-1.60732 l -19.56254,0 0,5.42332 12.59872,0 c 0.53083,0 1.21013,-0.25984 1.21013,-1.5405 l 0.80181,0 0,8.71591 -0.80181,0 c 0,-1.28437 -0.6793,-1.54422 -1.21013,-1.54422 l -12.59872,0 0,6.62974 z"
       style="fill:#1f1a1c;fill-rule:nonzero;stroke:none" />
    <path
       id="path3885"
       d="m 683.60839,182.12119 c 0,-0.93544 -0.7981,-1.13589 -1.47369,-1.20271 l 0,-0.80923 21.50395,0 c 6.57406,0 10.99141,3.21835 10.99141,9.31727 0,4.81825 -3.28517,7.43896 -7.44268,9.04628 l 5.96157,8.96462 c 0.47885,0.74241 1.39944,1.34748 2.34602,1.34748 l 0,0.79438 -13.52674,0 0,-0.79438 c 0.59764,0 1.61103,-0.20788 1.61103,-0.86862 0,-0.87976 -4.56212,-8.17024 -5.09666,-9.30242 l -6.43299,0 0,8.96833 c 0,0.93544 0.80923,1.13218 1.74838,1.20271 l 0,0.79438 -11.51852,0 0,-0.79438 c 0.53082,-0.0705 1.32892,-0.26727 1.32892,-1.20271 z m 8.44122,10.85405 9.52885,0 c 2.79889,0 4.61038,-1.19528 4.61038,-3.61925 0,-2.07504 -1.14703,-3.60812 -5.09666,-3.60812 l -9.04257,0 z"
       style="fill:#1f1a1c;fill-rule:nonzero;stroke:none" />
    <path
       id="path3889"
       d="m 723.67634,199.68999 0.87234,0.4009 c 0,0.20416 -0.0668,0.38976 -0.0668,0.72385 0,1.74095 7.70623,3.48933 13.14068,3.48933 1.65558,0 6.08407,-0.26726 6.08407,-2.87684 0,-5.234 -21.91228,-0.14477 -21.91228,-11.38488 0,-4.16122 3.96448,-9.99286 14.8705,-9.99286 6.3699,0 11.85632,1.75209 13.33,1.75209 0.75355,0 1.13589,-0.53825 1.4774,-0.80923 l 0.74241,0.27098 -4.02387,8.44122 -0.86491,-0.4009 c 0,-0.20045 0.0631,-0.46772 0.0631,-0.74613 0,-0.66074 -4.74772,-2.4648 -9.25416,-2.4648 -1.663,0 -7.61343,0 -7.61343,2.93995 0,4.75143 21.88629,-0.14106 21.88629,11.52223 0,5.23029 -4.47303,9.78127 -14.73316,9.78127 -6.42186,0 -13.92393,-2.40542 -14.46218,-2.40542 -0.60135,0 -1.07278,0.45288 -1.54421,0.93916 l -0.72756,-0.2153 z"
       style="fill:#1f1a1c;fill-rule:nonzero;stroke:none" />
    <path
       id="path3893"
       d="m 782.98946,209.83653 0,-0.80181 c 0.25985,0 0.8612,0 0.8612,-0.60135 0,-0.74613 -1.46626,-3.34828 -1.94141,-4.56212 l -15.5461,0 c -0.38976,1.21384 -1.93769,3.81599 -1.93769,4.56212 0,0.60135 0.59764,0.60135 0.87233,0.60135 l 0,0.80181 -10.04854,0 0,-0.80181 c 0.53825,0 1.1396,-0.20045 1.34377,-0.66817 5.3565,-12.52448 11.57791,-25.59093 11.57791,-26.52265 0,-0.47515 -0.19674,-0.61249 -0.85749,-0.6756 l 0,-0.79809 13.98704,0 0,0.79809 c -0.66075,0.0631 -0.86491,0.20045 -0.86491,0.6756 0,0.8018 9.38037,19.61451 12.32032,26.52265 0.21158,0.46772 0.80923,0.66817 1.33634,0.66817 l 0,0.80181 z m -3.3557,-10.78353 -5.62748,-11.71526 -5.48642,11.71526 z"
       style="fill:#1f1a1c;fill-rule:nonzero;stroke:none" />
    <path
       id="path3897"
       d="m 800.5746,182.20285 c 0,-0.9243 -0.80181,-1.13589 -1.80778,-1.19899 l 0,-0.80552 12.53562,0 0,0.80552 c -0.954,0.0631 -1.7558,0.27469 -1.7558,1.19899 l 0,20.63904 18.35242,0 c 0.55309,0 1.2027,-0.26355 1.2027,-1.68156 l 0.80181,0 0,10.18589 -0.80181,0 c 0,-1.41058 -0.64961,-1.68156 -1.2027,-1.68156 l -29.13224,0 0,-0.79438 c 1.00597,-0.0594 1.80778,-0.26727 1.80778,-1.20271 z"
       style="fill:#1f1a1c;fill-rule:nonzero;stroke:none" />
    <path
       id="path3901"
       d="m 309.47005,182.02319 c 0,-0.49371 -0.16704,-0.89461 -1.56649,-1.00597 l 0,-0.67188 13.48962,0 0,0.67188 c -1.28808,0.0557 -1.56649,0.38977 -1.56649,0.72014 0,0.62734 9.68476,10.91345 13.59727,15.22686 l 0,-14.94103 c 0,-0.66817 -0.45287,-0.95029 -1.18043,-1.00597 l 0,-0.67188 10.24899,0 0,0.67188 c -1.39945,0.11136 -1.56649,0.51226 -1.56649,1.00597 l 0,26.08092 c 0,0.50484 0.16704,0.89832 1.56649,1.00597 l 0,0.67188 -10.63505,0 0,-0.67188 c 1.00968,0 1.2918,-0.21902 1.2918,-0.60878 0,-0.7387 -1.40316,-1.46998 -16.17715,-17.97008 l 0,17.57289 c 0,0.50484 0.16704,0.89832 1.56278,1.00597 l 0,0.67188 -10.63134,0 0,-0.67188 c 1.39945,-0.10765 1.56649,-0.50113 1.56649,-1.00597 z"
       style="fill:#1f1a1c;fill-rule:nonzero;stroke:none" />
    <path
       id="path3905"
       d="m 351.24518,182.02319 c 0,-0.49371 -0.17075,-0.89461 -1.5702,-1.00597 l 0,-0.67188 21.32206,0 c 6.03952,0 10.46429,2.23466 10.46429,7.78047 0,3.35199 -2.23837,5.41961 -5.37506,6.10262 l 0,0.10394 c 3.7529,1.01711 6.49239,3.02162 6.49239,7.16799 0,4.47303 -3.3557,8.2816 -11.30321,8.2816 l -21.60047,0 0,-0.67188 c 1.39945,-0.10765 1.5702,-0.50113 1.5702,-1.00597 z m 8.39297,9.39893 7.61343,0 c 4.79969,0 6.04323,-0.32666 6.04323,-2.58731 0,-2.23094 -1.24354,-2.56132 -6.04323,-2.56132 l -7.61343,0 z m 0,12.42054 9.514,0 c 3.91622,0 5.48271,-0.88718 5.48271,-3.35198 0,-2.44996 -1.56649,-3.36313 -5.48271,-3.36313 l -9.514,0 z"
       style="fill:#1f1a1c;fill-rule:nonzero;stroke:none" />
    <path
       id="path3909"
       d="m 415.626,191.19643 -0.56794,-0.38235 c 0.0557,-0.23014 0.1225,-0.44544 0.1225,-0.84635 0,-1.13217 -4.31713,-2.57245 -9.06856,-2.57245 -4.53614,0 -10.41232,1.96368 -10.41232,7.65797 0,5.72029 5.87618,7.68025 10.41232,7.68025 1.95625,0 9.39522,-1.52565 9.39522,-3.13669 0,-0.34151 -0.22273,-0.56423 -0.32666,-0.84263 l 0.60506,-0.39719 5.76854,8.79386 -0.67559,0.38977 c -0.16705,-0.38977 -0.38235,-0.44545 -0.77582,-0.44545 -1.12476,0 -6.33278,3.02904 -14.66263,3.02904 -8.96462,0 -18.4712,-5.04098 -18.4712,-15.07096 0,-10.01513 9.50658,-15.05239 18.4712,-15.05239 4.46931,0 7.6654,0.56423 9.90006,1.18414 2.1864,0.61621 3.30373,1.06537 3.86425,1.06537 0.33408,0 0.61991,-0.17447 0.84635,-0.44916 l 0.60877,0.17075 z"
       style="fill:#1f1a1c;fill-rule:nonzero;stroke:none" />
    <path
       id="path3913"
       d="m 480.01611,196.0414 c 3.24805,0.60878 5.70543,3.45964 5.70543,6.88216 0,3.70092 -2.87685,6.72996 -6.52209,6.97867 l -39.97886,0.026 c -3.86425,0 -6.99723,-3.12926 -6.99723,-6.99723 0,-3.47819 2.53533,-6.35875 5.86134,-6.897 -1.25839,-1.27324 -2.03421,-3.01419 -2.03421,-4.93704 0,-3.86425 3.13298,-6.99723 7.00837,-6.99723 1.0802,0 2.10473,0.24871 3.02532,0.69045 -0.0297,-0.24871 -0.0408,-0.50484 -0.0408,-0.75726 0,-3.86797 3.12927,-7.00095 6.99723,-7.00095 2.54276,0 4.76257,1.35862 5.99869,3.3854 1.21384,-2.03421 3.44107,-3.39282 5.98755,-3.39282 3.86425,0 7.00094,3.13669 7.00094,7.00094 0,0.27469 -0.0149,0.54567 -0.052,0.81665 0.9243,-0.44915 1.95996,-0.70157 3.05502,-0.70157 3.86797,0 6.99723,3.13297 6.99723,6.99722 0,1.908 -0.77211,3.64525 -2.01193,4.90363"
       style="fill:#ffffff;fill-rule:nonzero;stroke:none" />
    <path
       id="path3917"
       d="m 462.47292,184.36327 c -0.29697,0.38605 -2.13815,1.02081 -2.23837,1.99337 -0.0965,1.55536 2.23837,16.10662 2.23837,16.10662 0,0 3.55615,-7.97721 5.20802,-11.4851 1.99708,-4.28372 2.96593,-5.74256 2.43511,-7.92896 -0.53825,-3.11813 -3.25919,-4.525 -5.69801,-4.28371 -2.72094,0.43431 -4.62151,2.52791 -4.62151,5.30453 l 2.0936,0 c 0,0 0.53453,0.052 0.58279,0.29325"
       style="fill:#5f53ae;fill-rule:evenodd;stroke:none" />
    <path
       id="path3921"
       d="m 478.19274,186.98769 c -1.8486,-1.35861 -6.27709,-2.08988 -8.17395,2.38686 l -7.54661,16.69312 15.28254,-10.36406 c 4.23175,-3.1701 2.3386,-7.25337 0.43802,-8.71592"
       style="fill:#3e87cf;fill-rule:evenodd;stroke:none" />
    <path
       id="path3925"
       d="m 458.24229,184.60604 c 0.63476,-3.94221 -3.21465,-6.08407 -5.84649,-5.83907 -2.23466,0.4306 -5.73885,2.82116 -4.38023,7.00465 l 7.44639,16.84161 z"
       style="fill:#cb1847;fill-rule:evenodd;stroke:none" />
    <path
       id="path3929"
       d="m 439.9901,208.30307 16.0101,0 -14.01673,-9.77756 c -3.45592,-2.19382 -7.10116,0.23757 -7.78418,2.7692 -0.87976,2.88427 0.23386,6.81162 5.79081,7.00836"
       style="fill:#f9b10c;fill-rule:evenodd;stroke:none" />
    <path
       id="path3933"
       d="m 439.84347,195.31458 15.62034,10.75012 c 0,0 -6.47012,-14.55126 -7.73593,-17.36872 -1.65558,-3.45964 -5.89103,-3.31115 -7.88441,-1.80777 -2.33488,1.7558 -3.16267,5.84649 0,8.42637"
       style="fill:#f35d1b;fill-rule:evenodd;stroke:none" />
    <path
       id="path3937"
       d="m 461.88901,208.30307 c 0,0 14.94104,0.0446 17.03093,-0.0445 4.13523,-0.19674 5.30824,-4.07955 5.06324,-5.93929 -0.63476,-3.01791 -3.64895,-6.27709 -8.17766,-3.6007 z"
       style="fill:#34b43f;fill-rule:evenodd;stroke:none" />
  </g>
</svg>
